<?xml version="1.0" encoding="iso-8859-1"?>
<!-- Generator: Adobe Illustrator 18.0.0, SVG Export Plug-In . SVG Version: 6.00 Build 0)  -->
<!DOCTYPE svg PUBLIC "-//W3C//DTD SVG 1.1//EN" "http://www.w3.org/Graphics/SVG/1.1/DTD/svg11.dtd">
<svg version="1.1" id="Capa_1" xmlns="http://www.w3.org/2000/svg" xmlns:xlink="http://www.w3.org/1999/xlink" x="0px" y="0px"
	 viewBox="0 0 477.571 477.571" style="enable-background:new 0 0 477.571 477.571;" xml:space="preserve">
<g>
	<path d="M379.876,182.566c-12.402,0-24.269,2.328-35.194,6.561l-35.573-75.513l28.007,0.001c6.052,0,10.977,4.925,10.977,10.979
		v1.064c0,6.054-4.924,10.979-10.977,10.979c-3.866,0-7,3.134-7,7c0,3.866,3.134,7,7,7c13.772,0,24.977-11.206,24.977-24.979v-1.064
		c0-13.773-11.205-24.979-24.977-24.979l-38.952,0.007c-0.051,0,0.051-0.001,0,0c-1.03-0.015-2.079,0.191-3.074,0.66
		c-3.497,1.647-4.997,5.818-3.349,9.316l14.358,30.477h-127.42l-11.899-26.46h7.857c3.866,0,7-3.134,7-7s-3.134-7-7-7l-38.801-0.001
		c-3.866,0-7,3.134-7,7s3.134,7,7,7l15.593,0l13.833,30.761c-0.256,0.315-0.493,0.652-0.697,1.02l-25.694,46.282
		c-12.519-5.841-26.468-9.112-41.17-9.112C43.828,182.566,0,226.392,0,280.262c0,53.868,43.828,97.693,97.701,97.693h0.002
		c53.869,0,97.694-43.825,97.694-97.693c0-34.177-17.644-64.305-44.297-81.77l21.269-38.311l43.576,96.903
		c-9.379,5.935-15.626,16.394-15.626,28.29c0,18.449,15.011,33.459,33.463,33.459c18.448,0,33.456-15.01,33.456-33.459
		c0-8.389-3.109-16.06-8.227-21.939l65.641-83.976l7.374,15.653c-29.727,16.771-49.848,48.652-49.848,85.149
		c0,53.869,43.827,97.694,97.698,97.694c53.869,0,97.695-43.826,97.695-97.694C477.571,226.392,433.745,182.566,379.876,182.566z
		 M181.396,280.262c0,46.148-37.545,83.693-83.694,83.693h-0.002C51.548,363.956,14,326.411,14,280.262
		c0-46.15,37.548-83.696,83.701-83.696c12.237,0,23.858,2.662,34.346,7.402l-31.207,56.212c-1.026-0.16-2.07-0.268-3.141-0.268
		c-11.22,0-20.349,9.129-20.349,20.35c0,11.219,9.128,20.347,20.349,20.347c11.221,0,20.349-9.127,20.349-20.347
		c0-5.078-1.882-9.716-4.969-13.285l31.206-56.212C166.651,225.806,181.396,251.343,181.396,280.262z M233.782,304.833
		c-10.732,0-19.463-8.729-19.463-19.459c0-10.731,8.731-19.461,19.463-19.461c10.728,0,19.456,8.73,19.456,19.461
		C253.238,296.104,244.51,304.833,233.782,304.833z M247.823,255.014c-4.273-1.984-9.028-3.101-14.042-3.101
		c-1.583,0-3.138,0.118-4.663,0.332l-44.145-98.17h127.72l5.276,11.2L247.823,255.014z M379.876,363.957
		c-46.151,0-83.698-37.545-83.698-83.694c0-30.907,16.853-57.935,41.839-72.431l27.39,58.141c-3.633,3.678-5.882,8.724-5.882,14.29
		c0,11.219,9.129,20.347,20.35,20.347c11.22,0,20.348-9.127,20.348-20.347c0-11.221-9.128-20.35-20.348-20.35
		c-0.608,0-1.208,0.039-1.803,0.092l-27.403-58.17c9.099-3.399,18.938-5.268,29.208-5.268c46.15,0,83.695,37.546,83.695,83.696
		C463.571,326.412,426.026,363.957,379.876,363.957z"/>
	<path d="M233.779,275.48c-5.455,0-9.892,4.438-9.892,9.893c0,5.454,4.438,9.892,9.892,9.892c5.454,0,9.892-4.438,9.892-9.892
		C243.671,279.918,239.234,275.48,233.779,275.48z"/>
</g>
<g>
</g>
<g>
</g>
<g>
</g>
<g>
</g>
<g>
</g>
<g>
</g>
<g>
</g>
<g>
</g>
<g>
</g>
<g>
</g>
<g>
</g>
<g>
</g>
<g>
</g>
<g>
</g>
<g>
</g>
</svg>
